<?xml version="1.0" encoding="UTF-8" standalone="no"?><!DOCTYPE svg PUBLIC "-//W3C//DTD SVG 1.1//EN" "http://www.w3.org/Graphics/SVG/1.1/DTD/svg11.dtd"><svg width="1365px" height="768px" version="1.1" xmlns="http://www.w3.org/2000/svg" xmlns:xlink="http://www.w3.org/1999/xlink" xml:space="preserve" xmlns:serif="http://www.serif.com/" style="fill-rule:evenodd;clip-rule:evenodd;stroke-linecap:round;stroke-linejoin:round;stroke-miterlimit:2;"><g><path d="M764,470L781,499L953,150L921,155L764,470Z" style="fill:rgb(45,183,105);"/><path d="M748,383L796,384L874,229L823,228L748,383Z" style="fill:rgb(45,183,105);"/><path d="M448,155L416,150L505,331L534,323L448,155Z" style="fill:rgb(107,218,124);"/><path d="M498,408C476,347 633,341 688,288C701,277 710,269 716,253C691,280 656,299 610,312C546,327 490,343 478,364C470,381 484,396 498,408Z" style="fill:rgb(52,75,106);"/><g transform="matrix(1.163543,0,0,1,-155.330399,0.512)"><path d="M720,363L758,439L682,439L720,363Z" style="fill:rgb(44,63,95);"/></g><g transform="matrix(-1.007422,0.007031,-0.006084,-0.871762,1486.506915,770.872838)"><path d="M720,363L758,439L682,439L720,363Z" style="fill:rgb(45,183,105);"/></g><path d="M460,155L585,173L608,218L490,218L460,155Z" style="fill:rgb(53,76,108);"/><path d="M495,228L550,227L588,306L541,319L495,228Z" style="fill:rgb(53,76,108);"/><path d="M563,227L613,227L646,289L598,303L563,227Z" style="fill:rgb(53,76,108);"/><path d="M719,293C720,295 746,243 750,228C750,228 778,228 778,228C765,257 742,280 719,293Z" style="fill:rgb(45,183,105);"/><path d="M759,218L780,218L779,182L759,218Z" style="fill:rgb(45,183,105);"/><path d="M531,447C518,403 568,382 615,364C669,342 724,322 762,278C792,242 793,204 774,167C784,204 780,238 755,265C720,296 682,318 639,331C587,346 540,363 515,388C499,405 510,425 531,447Z" style="fill:rgb(255,97,0);"/><path d="M798,218L878,218L909,156L789,172C796,187 799,203 798,218Z" style="fill:rgb(45,183,105);"/><path d="M796,227L811,228L737,384L715,384L694,343C754,319 783,277 796,227Z" style="fill:rgb(45,183,105);"/><g transform="matrix(2.909091,0,0,2.922418,-1378.270533,-423.790344)"><ellipse cx="719" cy="224" rx="6" ry="5" style="fill:rgb(255,97,0);stroke:rgb(246,160,15);stroke-width:0px;"/></g><ellipse cx="719" cy="224" rx="6" ry="5" style="fill:white;"/><path d="M587,499L603,470L567,398L545,416L587,499Z" style="fill:rgb(44,63,95);"/><path d="M550,425L574,412L567,398L545,416L550,425Z" style="fill:rgb(33,48,72);"/><g transform="matrix(1,0,0,1,35.38941,-19.660784)"><path d="M574,479L633,374L541,413L574,479Z" style="fill:rgb(44,63,95);"/><clipPath id="_clip1"><path d="M574,479L633,374L541,413L574,479Z"/></clipPath><g clip-path="url(#_clip1)"><path d="M548,428L628,383L633,374L541,413L548,428Z" style="fill:rgb(33,48,72);"/></g></g></g><g transform="matrix(2.747602,0,0,2.747602,-1553.783169,-1312.083519)"><g transform="matrix(38.391234,0,0,38.391234,818.604493,702.399579)"></g><text x="716px" y="702px" style="font-family:'Brandish';font-weight:5;font-size:38px;fill:rgb(33,48,72);">Court</text></g><g transform="matrix(2.747602,0,0,2.747602,-1262.988288,-1312.083519)"><g transform="matrix(38.391234,0,0,38.391234,809.134655,702.399579)"></g><text x="716px" y="702px" style="font-family:'Brandish';font-weight:5;font-size:38px;fill:rgb(255,97,0);">Flow</text></g></svg>